<svg width="39" height="38" viewBox="0 0 39 38" fill="none" xmlns="http://www.w3.org/2000/svg">
<path d="M5.08017 16.6639H18.4517C18.492 16.6639 18.5287 16.6793 18.5665 16.6909L18.8951 15.5896C18.9996 15.2394 19.3164 15 19.6755 15H21.3071C21.5324 15 21.7151 15.1862 21.7151 15.416V16.2479C21.7151 16.4776 21.5324 16.6639 21.3071 16.6639H20.2798L17.731 25.2046L18.6829 26.337C19.0591 26.7846 19.2286 27.4013 19.0554 27.9637C18.8339 28.683 18.2114 29.1429 17.4936 29.1429H5.80599C5.5807 29.1429 5.39805 28.9566 5.39805 28.7269V27.895C5.39805 27.6652 5.5807 27.479 5.80599 27.479H17.4936L16.2005 25.9406C16.168 25.9019 16.1441 25.8583 16.1194 25.8151H8.21449C7.58222 25.8151 7.00686 25.4428 6.73763 24.8594L3.89104 18.6913C3.80939 18.5137 3.76637 18.3167 3.76637 18.1213V18.0035C3.76637 17.2637 4.35459 16.6639 5.08017 16.6639Z" fill="#F9FBFF"/>
<path d="M16.9074 33.0001C16.0223 33.0001 15.3048 32.2805 15.3048 31.3929C15.3048 30.5053 16.0223 29.7858 16.9074 29.7858C17.7925 29.7858 18.5099 30.5053 18.5099 31.3929C18.5099 32.2805 17.7925 33.0001 16.9074 33.0001Z" fill="white"/>
<path d="M7.29203 33.0001C6.40696 33.0001 5.68946 32.2805 5.68946 31.3929C5.68946 30.5053 6.40696 29.7858 7.29203 29.7858C8.1771 29.7858 8.89459 30.5053 8.89459 31.3929C8.89459 32.2805 8.1771 33.0001 7.29203 33.0001Z" fill="white"/>
<path fill-rule="evenodd" clip-rule="evenodd" d="M26.7009 22C32.208 22 36.6724 17.5228 36.6724 12C36.6724 6.47715 32.208 2 26.7009 2C21.1938 2 16.7294 6.47715 16.7294 12C16.7294 17.5228 21.1938 22 26.7009 22Z" fill="#C7A17A"/>
<path d="M24.8529 16.8182C24.6849 16.8182 24.5589 16.7809 24.4749 16.7062C24.4002 16.6222 24.3629 16.5149 24.3629 16.3842C24.3629 16.3096 24.3816 16.2349 24.4189 16.1602C24.4562 16.0856 24.5076 16.0156 24.5729 15.9502L27.8489 12.4082C28.3529 11.8669 28.7169 11.3676 28.9409 10.9102C29.1649 10.4436 29.2769 9.96757 29.2769 9.48224C29.2769 8.87557 29.0949 8.41357 28.7309 8.09624C28.3669 7.7789 27.8349 7.62024 27.1349 7.62024C26.6682 7.62024 26.2342 7.69957 25.8329 7.85824C25.4409 8.00757 25.0629 8.23157 24.6989 8.53024C24.6056 8.6049 24.5169 8.64224 24.4329 8.64224C24.3582 8.64224 24.2929 8.6189 24.2369 8.57224C24.1809 8.51624 24.1389 8.4509 24.1109 8.37624C24.0922 8.29224 24.0922 8.20824 24.1109 8.12424C24.1389 8.04024 24.1902 7.96557 24.2649 7.90024C24.6289 7.5829 25.0676 7.32624 25.5809 7.13024C26.0942 6.93424 26.6262 6.83624 27.1769 6.83624C27.8116 6.83624 28.3482 6.9389 28.7869 7.14424C29.2349 7.34024 29.5756 7.63424 29.8089 8.02624C30.0422 8.41824 30.1589 8.88957 30.1589 9.44024C30.1589 9.83224 30.0936 10.2196 29.9629 10.6022C29.8322 10.9849 29.6362 11.3722 29.3749 11.7642C29.1229 12.1562 28.7962 12.5669 28.3949 12.9962L25.2449 16.3282V16.0622H30.2429C30.3736 16.0622 30.4716 16.0949 30.5369 16.1602C30.6116 16.2162 30.6489 16.3049 30.6489 16.4262C30.6489 16.5569 30.6116 16.6549 30.5369 16.7202C30.4716 16.7856 30.3736 16.8182 30.2429 16.8182H24.8529Z" fill="#F9FBFF"/>
</svg>
